<svg width="500" height="500" viewBox="0 0 500 500" fill="none" xmlns="http://www.w3.org/2000/svg">
<circle cx="248.447" cy="236.816" r="216.447" fill="#ABF5D1"/>
<circle cx="248.447" cy="236.816" r="105.724" fill="#ABF5D1" stroke="white" stroke-width="5"/>
<line x1="32" y1="234.5" x2="464.895" y2="234.5" stroke="white" stroke-width="5"/>
<circle cx="248" cy="234" r="17" fill="white"/>
<rect width="37" height="68" transform="translate(183 198)" fill="#ABF5D1"/>
<path d="M190.726 240.398V236.038L201.656 218.818H205.415V224.852H203.19L196.3 235.757V235.962H211.832V240.398H190.726ZM203.293 245V239.068L203.395 237.138V218.818H208.585V245H203.293Z" fill="white"/>
<rect width="37" height="68" transform="translate(277 198)" fill="#ABF5D1"/>
<path d="M284.726 240.398V236.038L295.656 218.818H299.415V224.852H297.19L290.3 235.757V235.962H305.832V240.398H284.726ZM297.293 245V239.068L297.395 237.138V218.818H302.585V245H297.293Z" fill="white"/>
<g clip-path="url(#clip0_563_8753)">
<path d="M100.026 424.168L125.285 405.816L148.285 413.428L154.255 438.69C152.387 441.144 150.345 443.492 148.127 445.71C140.701 453.136 131.859 458.629 122.211 461.947L100.025 448.279L100.026 424.168Z" fill="#F6F9F9"/>
<path d="M100.025 424.165L74.7641 405.813L84.413 376.118H115.636L125.285 405.813L100.025 424.165Z" fill="#203D77"/>
<path d="M74.765 405.812L100.025 424.165V448.276L77.8861 461.96C68.2205 458.644 59.3616 453.145 51.9234 445.707C49.7228 443.506 47.6961 441.179 45.8407 438.745L51.7851 413.247L74.765 405.812Z" fill="#F6F9F9"/>
<path d="M122.215 461.946C115.17 464.369 107.697 465.634 100.029 465.634C92.3773 465.634 84.9203 464.375 77.8896 461.963L100.029 448.279L122.215 461.946Z" fill="#203D77"/>
<path d="M84.4141 376.118L74.7655 405.813L51.7854 413.248L32.0179 396.074C32.3177 382.417 36.6208 369.429 44.3707 358.46L70.3701 356.513L84.4141 376.118Z" fill="#ECECEF"/>
<path d="M115.639 376.118H84.4155L70.3715 356.513L80.2659 332.479C86.5912 330.569 93.233 329.579 100.027 329.579C106.83 329.579 113.479 330.571 119.812 332.486L129.882 356.612L115.639 376.118Z" fill="#F6F9F9"/>
<path d="M148.287 413.43L125.287 405.817L115.638 376.122L129.882 356.617L155.755 358.569C163.485 369.553 167.763 382.554 168.036 396.219L148.287 413.43Z" fill="#ECECEF"/>
<path d="M45.8416 438.743C36.8641 426.97 32 412.661 32 397.602C32 397.091 32.0074 396.581 32.0186 396.071L51.7861 413.245L45.8416 438.743Z" fill="#203D77"/>
<path d="M44.3708 358.46C46.6066 355.295 49.1283 352.299 51.9239 349.503C59.9682 341.459 69.6726 335.678 80.2644 332.479L70.37 356.512L44.3708 358.46Z" fill="#203D77"/>
<path d="M155.756 358.561L129.883 356.609L119.812 332.482C130.395 335.682 140.091 341.461 148.129 349.499C150.956 352.326 153.502 355.358 155.756 358.561Z" fill="#135772"/>
<path d="M168.036 396.215C168.045 396.678 168.053 397.141 168.053 397.606C168.053 412.639 163.205 426.925 154.256 438.687L148.287 413.426L168.036 396.215Z" fill="#135772"/>
<path d="M100.026 424.168L125.285 405.816L148.285 413.428L154.255 438.69C152.387 441.144 150.345 443.492 148.127 445.71C140.701 453.136 131.859 458.629 122.211 461.947L100.025 448.279L100.026 424.168Z" fill="#ECECEF"/>
<path d="M148.287 413.43L125.287 405.817L115.638 376.122L129.882 356.617L155.755 358.569C163.485 369.553 167.763 382.554 168.036 396.219L148.287 413.43Z" fill="#DDDDDF"/>
<path d="M155.756 358.561L129.883 356.609L119.812 332.482C130.395 335.682 140.091 341.461 148.129 349.499C150.956 352.326 153.502 355.358 155.756 358.561Z" fill="#002775"/>
<path d="M168.036 396.215C168.045 396.678 168.053 397.141 168.053 397.606C168.053 412.639 163.205 426.925 154.256 438.687L148.287 413.426L168.036 396.215Z" fill="#002775"/>
<path d="M100.028 465.634C107.696 465.634 115.169 464.369 122.214 461.946L100.028 448.279V465.634Z" fill="#002775"/>
<path d="M129.883 356.613L119.813 332.486C113.48 330.571 106.83 329.579 100.028 329.579V376.118H115.639L129.883 356.613Z" fill="#ECECEF"/>
<path d="M115.639 376.118H100.028V424.165L125.288 405.813L115.639 376.118Z" fill="#002775"/>
</g>
<rect x="32" y="468.724" width="136.053" height="9.27632" fill="url(#paint0_radial_563_8753)"/>
<g clip-path="url(#clip1_563_8753)">
<rect x="371.037" y="55" width="114" height="114" fill="#FAFF00"/>
<path fill-rule="evenodd" clip-rule="evenodd" d="M385.25 55L399.5 69.25H399.537L385.287 83.5L371.037 69.25H371L385.25 55ZM428.075 69.25H428.037L413.787 55L399.537 69.25H399.575L413.825 83.5L399.575 97.75H399.537L385.287 83.5L371.037 97.75H371.075L385.325 112L399.575 97.75H399.612L413.862 112L428.112 97.75H428.075L413.825 83.5L428.075 69.25ZM442.362 83.5L428.112 69.25H428.075L442.325 55L456.575 69.25H456.612L442.362 83.5ZM456.65 97.75L442.4 112L428.15 97.75H428.112L442.362 83.5L456.612 97.75H456.65ZM470.9 83.5L485.15 97.75H485.187L470.937 112L456.687 97.75H456.65L470.9 83.5ZM470.9 83.5L456.65 69.25H456.612L470.862 55L485.112 69.25H485.15L470.9 83.5ZM399.537 126.25L385.287 112L371.037 126.25H371.075L385.325 140.5L399.575 126.25H399.612L413.862 140.5L428.112 126.25H428.075L413.825 112L399.575 126.25H399.537ZM456.612 126.25L442.362 112L428.112 126.25H428.15L442.4 140.5L456.65 126.25H456.687L470.937 140.5L485.187 126.25H485.15L470.9 112L456.65 126.25H456.612ZM399.537 154.75L385.287 140.5L371.037 154.75H371.075L385.325 169L399.575 154.75H399.612L413.862 169L428.112 154.75H428.075L413.825 140.5L399.575 154.75H399.537ZM456.612 154.75L442.362 140.5L428.112 154.75H428.15L442.4 169L456.65 154.75H456.687L470.937 169L485.187 154.75H485.15L470.9 140.5L456.65 154.75H456.612Z" fill="#FF7452"/>
</g>
<defs>
<radialGradient id="paint0_radial_563_8753" cx="0" cy="0" r="1" gradientUnits="userSpaceOnUse" gradientTransform="translate(100.026 473.362) rotate(90) scale(4.63816 68.0263)">
<stop stop-opacity="0.19"/>
<stop offset="1" stop-color="#C4C4C4" stop-opacity="0"/>
</radialGradient>
<clipPath id="clip0_563_8753">
<rect width="136.053" height="136.053" fill="white" transform="translate(32 329.579)"/>
</clipPath>
<clipPath id="clip1_563_8753">
<rect width="114" height="114" fill="white" transform="translate(371 55)"/>
</clipPath>
</defs>
</svg>
